<?xml version="1.0" standalone="no"?>
<!DOCTYPE svg PUBLIC "-//W3C//DTD SVG 1.1//EN" "http://www.w3.org/Graphics/SVG/1.1/DTD/svg11.dtd">
<svg width="6017" height="7100" viewBox="0 0 6017 7100" fill="none" xmlns="http://www.w3.org/2000/svg">
<path fill-rule="evenodd" clip-rule="evenodd" d="M3475.71 716.828C3524.7 710.6 3637.55 703.029 3715.25 700.748C3781.36 698.812 3947.33 702.083 4020.3 706.759C4236.3 720.607 4444.62 759.731 4617.31 818.882C4695.89 845.796 4699.43 846.32 4755.55 839.36C4816.47 831.805 4885.95 831.784 4941.59 839.315C5242.44 880.011 5477.45 1116.29 5514.94 1415.75C5521.11 1465.06 5518.23 1567.51 5509.32 1615.45C5505.77 1634.61 5498.14 1665.94 5492.38 1685.06C5486.62 1704.18 5478.9 1733.64 5475.22 1750.53C5467.22 1787.23 5469.29 1810.47 5492.16 1940.93C5506.13 2020.62 5507.1 2031.42 5505.45 2088.34C5503.4 2159.09 5497.97 2183 5472.95 2231.54C5457.86 2260.81 5456 2267.54 5455.96 2293.07C5455.84 2367.36 5530.73 2524.62 5641.77 2683.24C5713.61 2785.86 5725.03 2803.46 5742.37 2838.21C5771.18 2895.97 5777.48 2949.23 5760.66 2993C5745.62 3032.12 5699.34 3078.7 5632.95 3121.51C5613.13 3134.29 5596.87 3146.08 5596.82 3147.7C5596.77 3149.33 5607.44 3164.99 5620.52 3182.51C5651.22 3223.61 5670.6 3256.45 5685.21 3292.16C5695.66 3317.68 5696.95 3325.75 5696.99 3365.86C5697.04 3407.82 5696.18 3412.72 5684.36 3437.52C5677.39 3452.16 5663.26 3474.42 5652.96 3486.99L5634.25 3509.85L5660.49 3546.36C5718.4 3626.94 5717.47 3670.42 5656.87 3715.49C5633.67 3732.74 5587.1 3758.14 5551.69 3772.85C5539.3 3778 5526.86 3785.16 5524.05 3788.76C5516.06 3798.99 5517.99 3823.03 5529.2 3852.81C5552.12 3913.71 5557.43 4001.86 5541.68 4059.9C5533.01 4091.83 5505.98 4144.25 5485.34 4169.16C5445.4 4217.35 5382.49 4255.76 5314.2 4273.64C5266.3 4286.18 5155.63 4286.05 5050.1 4273.33C4911.22 4256.6 4898.53 4255.57 4862.41 4258.03C4796.13 4262.55 4739.93 4281.43 4684.97 4317.63C4610.81 4366.49 4549.75 4446.53 4519.18 4534.96C4506.37 4572 4505.75 4576.58 4505.63 4635.2C4505.49 4706.18 4512.6 4738.42 4540.84 4794.86C4571.55 4856.23 4605.3 4894.43 4693.86 4968C4772.63 5033.43 4799.25 5056.22 4826.5 5081.49C4864.31 5116.58 4903.93 5169.09 4925.35 5212.54C4946.61 5255.64 4964.95 5311.71 4961.08 5321.79C4956.71 5333.18 4770.95 5385.33 4644.73 5410.61C4501.42 5439.3 4406.5 5451.27 4294.64 5454.75C4015.11 5463.46 3734.68 5394.43 3494.14 5257.7C3186.34 5082.74 2938.71 4794.97 2787.57 4436.61C2767.94 4390.04 2765.99 4382.65 2766.06 4354.71C2766.1 4337.82 2770.97 4298.74 2776.89 4267.85C2835.15 3964.02 2808.14 3674.46 2694.88 3388.38C2667.35 3318.84 2646.21 3274.26 2633.4 3258.71C2627.92 3252.05 2616.82 3248.15 2589.23 3243.16C2294.1 3189.87 2058.09 3014.07 1922.61 2746.61C1880.13 2662.76 1855.03 2587.72 1837.33 2491.66C1826.84 2434.74 1822.69 2305.11 1829.33 2241.63C1846.57 2076.91 1907.44 1923.13 2010.37 1784.31C2038.2 1746.78 2080.49 1702.61 2182.54 1604.5C2217.96 1570.45 2234.25 1550.34 2272.07 1493.95C2411.22 1286.48 2535.22 1149.3 2692.04 1029.32C2916.2 857.814 3173.44 755.24 3475.71 716.828Z" fill="#442C1C"/>
<path d="M2073.83 1590.14C2105.21 1512.2 2127.76 1472.51 2180.29 1412.02C2067.94 1420.57 2001 1422.81 1858.86 1412.02C927.908 1085.41 4292.98 -323.763 4200.99 404.743C4168.45 473.262 4141.51 513.837 4082.24 589.001L4327.92 621.758C4462.31 430.235 4491.95 337.372 4436.43 206.154C4041.29 -475.602 1261.05 695.46 1459.63 1371.07C1545.68 1595.68 1697.46 1628 2073.83 1590.14Z" fill="#F1DA8D"/>
<path d="M2153.15 3984.66C2054.3 4003.14 1992.7 4026.89 1870.96 4093.47C1431.37 4333.87 1056.63 4602.18 734.434 4907.21C511.314 5118.43 363.806 5297.88 296.375 5440.11C256.355 5524.53 264.646 5598.56 320.267 5653.39C331.233 5664.2 350.58 5678.15 363.261 5684.38C383.779 5694.45 390.826 5695.7 427.264 5695.7C464.951 5695.7 470.442 5694.65 496.246 5682.42C537.041 5663.11 542.622 5658.54 670.984 5539.62C763.375 5454.03 844.977 5382.66 894.051 5344.52C1063.18 5213.05 1256.44 5129.1 1479.58 5090.17C1511.11 5084.67 1537.51 5080.76 1538.23 5081.48C1538.96 5082.2 1509.48 5097.92 1472.72 5116.4C867.915 5420.46 375.106 5885.98 113.906 6399.98C22.6698 6579.52 -5.54609 6669.32 0.870184 6759.72C12.0854 6917.71 126.203 7055.66 276.271 7092.65C295.7 7097.43 321.557 7099.58 359.703 7099.58C463.162 7099.58 538.703 7068.87 610.76 6997.5C646.22 6962.38 666.443 6933.75 704.724 6864.46C938.187 6441.92 1265.27 6123.39 1677.38 5917.24C1894.34 5808.71 2086.46 5746.41 2290.32 5718.48C2396.08 5703.99 2527.34 5698.31 2593.32 5705.36L2617.89 5707.99L2566.71 5717.76C2198.36 5788.07 1846.62 5959.15 1554.62 6210.02C1485.22 6269.65 1380.81 6378.05 1321.63 6451.92C1293.65 6486.85 1268.04 6520.5 1264.73 6526.7C1258.81 6537.75 1259.08 6538.3 1279.06 6555.94C1300.36 6574.75 1456.05 6669.38 1571.71 6733.81C1908.98 6921.69 2199.89 7024.52 2503.24 7063.09C2649.57 7081.7 2927.46 7087.56 3093.36 7075.54C3708.85 7030.96 4230.32 6818.51 4685.52 6426.88C4707.96 6407.58 4754.94 6367.12 4789.93 6336.96C4895.28 6246.17 5054.48 6120.91 5150.41 6053.32C5279 5962.73 5435.9 5885.56 5551.69 5855.95C5634.37 5834.81 5666.82 5830.99 5762.56 5831.14C5844.01 5831.26 5860.45 5832.54 5934.1 5844.45C5978.9 5851.7 6016.2 5856.98 6016.99 5856.2C6018.86 5854.33 5814.82 5582.8 5762.3 5517.26C5687.88 5424.4 5620.43 5363.16 5555.78 5329.75C5432.09 5265.83 5314.56 5275.4 5142.22 5363.42C4952.72 5460.21 4909.2 5481.24 4848.9 5505.16C4615.06 5597.96 4401.35 5640.36 4167.34 5640.41C3911.5 5640.46 3676.28 5585.83 3451.14 5474.09C3290.02 5394.11 3156.16 5298.57 3022 5167.78C2802.35 4953.64 2732.84 4826.13 2622.3 4434.56C2607.68 4382.76 2591.21 4327.48 2585.7 4311.72C2534.18 4164.25 2456.36 4060.63 2362.37 4014.36C2313.32 3990.2 2291.86 3985.47 2224.8 3984.05C2191.02 3983.33 2158.78 3983.61 2153.15 3984.66Z" fill="#734830"/>
</svg>